<svg width="1257" height="1257" viewBox="0 0 1257 1257" fill="none" xmlns="http://www.w3.org/2000/svg">
<circle opacity="0.3" cx="377.473" cy="377.473" r="375.33" transform="matrix(-0.979341 0.202216 0.202216 0.979341 921.857 182.493)" stroke="#A5A5A5" stroke-width="4.28481"/>
<circle opacity="0.8" cx="83.9597" cy="83.9597" r="83.4987" transform="matrix(-0.979341 0.202216 0.202216 0.979341 693.755 529.294)" stroke="#CACACA" stroke-width="0.922012"/>
<circle opacity="0.7" cx="126.581" cy="126.581" r="126.12" transform="matrix(-0.979341 0.202216 0.202216 0.979341 726.885 478.935)" stroke="#CACACA" stroke-width="0.922012" stroke-linecap="square" stroke-dasharray="36.88 9.22"/>
<circle opacity="0.4" cx="230.389" cy="230.389" r="229.928" transform="matrix(-0.979341 0.202216 0.202216 0.979341 807.551 356.28)" stroke="#CACACA" stroke-width="0.922012" stroke-dasharray="9.22 9.22"/>
<circle opacity="0.5" cx="190.099" cy="190.099" r="189.638" transform="matrix(-0.979341 0.202216 0.202216 0.979341 776.249 403.885)" stroke="#CACACA" stroke-width="0.922012" stroke-dasharray="27.66 18.44"/>
<circle opacity="0.3" cx="271.383" cy="271.383" r="270.922" transform="matrix(-0.979341 0.202216 0.202216 0.979341 839.412 307.843)" stroke="#CACACA" stroke-width="0.922012" stroke-dasharray="4.61 18.44"/>
<circle opacity="0.3" cx="427.354" cy="427.354" r="425.971" transform="matrix(-0.979341 0.202216 0.202216 0.979341 960.621 123.555)" stroke="#CACACA" stroke-width="2.76604" stroke-dasharray="1.84 92.2"/>
<circle opacity="0.5" cx="311.068" cy="311.068" r="309.685" transform="matrix(-0.980301 0.197511 0.197511 0.980301 871.9 262.258)" stroke="#DEDEDE" stroke-width="2.76604" stroke-linecap="square" stroke-dasharray="14.75 46.1"/>
<circle opacity="0.3" cx="369.594" cy="369.594" r="357.608" transform="matrix(-0.62932 -0.777146 -0.777146 0.62932 1148.22 683.271)" stroke="#C4C4C4" stroke-width="23.9723" stroke-dasharray="4.61 55.32"/>
<circle opacity="0.3" cx="427.354" cy="427.354" r="425.971" transform="matrix(-0.979341 0.202216 0.202216 0.979341 960.718 123.42)" stroke="#CACACA" stroke-width="2.76604" stroke-dasharray="1.84 92.2"/>
<circle opacity="0.2" cx="430.202" cy="430.202" r="428.417" transform="matrix(-0.979341 0.202216 0.202216 0.979341 962.821 120.192)" stroke="#206FBA" stroke-width="3.57068"/>
<circle opacity="0.2" cx="479.677" cy="479.677" r="478.963" transform="matrix(-0.979341 0.202216 0.202216 0.979341 1001.27 61.7347)" stroke="#206FBA" stroke-width="1.42827"/>
<circle opacity="0.2" cx="531.925" cy="531.925" r="531.211" transform="matrix(-0.979341 0.202216 0.202216 0.979341 1041.87 0)" stroke="#206FBA" stroke-width="1.42827"/>
</svg>
